# xmcd CD database file
#
# Track frame offsets:
#	150
#	12618
#	26702
#	39337
#	52363
#	64943
#	77021
#	89434
#	103407
#	117213
#	131409
#	145716
#	159633
#	174721
#	188081
#	203726
#	218200
#
# Disc length: 3100 seconds
#
# Revision: 0
# Processed by: cddbd v1.5.2PL0 Copyright (c) Steve Scherf et al.
# Submitted via: CDex 1.75
#
DISCID=f90c1a11
DTITLE=Various Artist - The Rough Guide To Blind, Black and Blue
DYEAR=2019
DGENRE=Blues
TTITLE0=Blind Blake - He's In The Jailhouse Now
TTITLE1=Teddy Darby - Lawdy Lawdy Worried Blues
TTITLE2=Blind Boy Fuller - Truckin' My Blues Away No. 2 (Take 2)
TTITLE3=Blind Lemon Jefferson - See That My Grave Is Kept Clean
TTITLE4=Sonny Terry - Harmonica Stomp
TTITLE5=Blind Joe Reynolds - Third Street Woman Blues
TTITLE6=Blind Joe Taggart - Religion Is Something Within You
TTITLE7=Blind Willie McTell - Stomp Down Rider
TTITLE8=Reverend Gary Davis - The Angels Message To Me
TTITLE9=Willie Walker - South Carolina Rag (Take 2)
TTITLE10=Blind Willie Johnson - Nobody's Fault But Mine
TTITLE11=Blind Roosevelt Graves - Crazy About My Baby
TTITLE12=Blind Gussie Nesbit - Pure Religion
TTITLE13=Bo Carter  - Don't Mash My Digger So Deep
TTITLE14=Blind Mamie Forehand - I Wouldn't Mind Dying If Dying Was All
TTITLE15=Sleepy John Estes - Diving Duck Blues
TTITLE16=Blind Willie Davis - I've Got A Key To The Kingdom 
EXTD=YEAR: 2019
EXTT0=
EXTT1=
EXTT2=
EXTT3=
EXTT4=
EXTT5=
EXTT6=
EXTT7=
EXTT8=
EXTT9=
EXTT10=
EXTT11=
EXTT12=
EXTT13=
EXTT14=
EXTT15=
EXTT16=
PLAYORDER=
